Coordinates
version=1
nRows=19
nColumns=33
inDegrees=yes

Units are S.I. units (second, meters, Newtons, ...)
Angles are in degrees.

endheader
time	ground_thorax_rot_x	ground_thorax_rot_y	ground_thorax_rot_z	ground_thorax_tx	ground_thorax_ty	ground_thorax_tz	clav_prot_r	clav_elev_r	scapula_abduction_r	scapula_elevation_r	scapula_upward_rot_r	scapula_winging_r	shoulder_elv_r	plane_of_elev_r	axial_rot_r	elbow_flexion_r	pro_sup_r	wrist_flex_r	wrist_dev_r	clav_prot_l	clav_elev_l	scapula_abduction_l	scapula_elevation_l	scapula_upward_rot_l	scapula_winging_l	shoulder_elv_l	plane_of_elev_l	axial_rot_l	elbow_flexion_l	pro_sup_l	wrist_flex_l	wrist_dev_l
     12.15000000	     35.61608385	     19.69682466	     24.43459649	     70.71241064	    791.09469638	    -44.72687875	     11.62246562	     40.53459844	     33.62317437	     44.17388299	    -27.56518117	   1359.76645598	   1144.93811100	     21.80393840	   -179.99999979	   1438.91218734	    535.45623836	     12.51895257	     14.27246541	    -10.95530930	    -45.00000000	    -45.00000000	     45.00000000	    -45.00000000	   5125.82991485	  -3511.96235180	     17.02556105	   -179.99999979	   2160.55451931	   -172.60707494	     13.35426586	    -13.80759789
     12.16000000	     35.27098495	     20.11391394	     24.76557878	     72.25334229	    789.95483715	    -44.60991361	     11.61545510	     39.79769018	     33.05246679	     43.80528504	    -27.07123847	   1359.74168835	   1144.93140031	     21.84947697	   -179.94395434	   1439.04038437	    535.91510918	     12.31305308	     14.04537832	    -11.03587615	    -45.00000000	    -45.00000000	     45.00000000	    -45.00000000	   5125.67288293	  -3511.98426636	     16.67992555	   -179.99999979	   2160.50088267	   -172.94273735	     13.18634081	    -13.73224729
     12.17000000	     35.30270264	     20.02298852	     24.61802929	     73.76058047	    788.82232698	    -44.50764526	     11.23859300	     40.68440321	     33.33078463	     43.75342699	    -27.40087403	   1360.08369865	   1145.10030966	     21.60661398	   -179.99221850	   1438.96770424	    536.33426889	     12.47721195	     14.14993141	    -11.05663885	    -45.00000000	    -45.00000000	     45.00000000	    -45.00000000	   5125.70113231	  -3512.13083597	     16.94785071	   -179.99999979	   2160.74302299	   -173.11712520	     13.46418235	    -13.57369461
     12.18000000	     35.60745209	     19.52984110	     23.94011931	     75.22441904	    787.70868738	    -44.41891867	     11.50335904	     40.34405848	     34.10233356	     43.50483954	    -26.93715572	   1359.64872447	   1144.81265007	     21.65180221	   -179.71201750	   1439.20186871	    536.88865328	     12.28883852	     14.13461467	    -11.28990029	    -45.00000000	    -45.00000000	     45.00000000	    -45.00000000	   5125.33312955	  -3512.05272218	     16.96330335	   -179.99999979	   2160.66132149	   -173.43407438	     13.37262940	    -13.54495534
     12.19000000	     35.47945493	     19.64219947	     23.92161011	     76.65017841	    786.61615737	    -44.34154327	     11.44760166	     39.88249128	     33.95893649	     43.12497713	    -26.33713353	   1359.47833287	   1144.76776116	     21.61322247	   -179.26223317	   1439.35598961	    537.31228243	     12.16014700	     13.93893067	    -11.43681758	    -45.00000000	    -45.00000000	     45.00000000	    -45.00000000	   5125.09334143	  -3512.05714695	     16.79197500	   -179.99999979	   2160.70495645	   -173.80588867	     13.27128893	    -13.46581995
     12.20000000	     35.40988738	     19.74451055	     23.91948734	     78.03588463	    785.55128348	    -44.27385994	     11.20317976	     40.23741121	     33.98266894	     42.95621795	    -26.17336731	   1359.55022163	   1144.79849684	     21.39101366	   -178.95489550	   1439.31466520	    537.59694453	     12.22875484	     13.94218067	    -11.48066108	    -45.00000000	    -45.00000000	     45.00000000	    -45.00000000	   5125.08585275	  -3512.12410947	     16.79641997	   -179.99999979	   2160.76985140	   -174.09958894	     13.38636707	    -13.36836271
     12.21000000	     35.38034188	     19.58882361	     23.66066318	     79.38458620	    784.51312589	    -44.21421768	     11.38561714	     39.79212958	     34.38820612	     42.46301981	    -25.91203415	   1359.09272007	   1144.75127678	     21.42454100	   -178.64719363	   1439.43095054	    537.82950653	     12.07933213	     13.77324956	    -11.61452345	    -45.00000000	    -45.00000000	     45.00000000	    -45.00000000	   5124.79930636	  -3512.04229287	     16.72112676	   -179.99999979	   2160.83948248	   -174.38372666	     13.24399116	    -13.30226554
     12.22000000	     35.37289969	     19.73080719	     23.59116924	     80.68950660	    783.50742491	    -44.16162805	     11.04897414	     40.27901685	     34.01463654	     42.42763010	    -25.35420191	   1359.45320579	   1144.86597738	     21.14568959	   -178.11278428	   1439.47730034	    538.00004796	     12.18278946	     13.85871856	    -11.72163494	    -45.00000000	    -45.00000000	     45.00000000	    -45.00000000	   5124.75049089	  -3512.17364114	     16.81607076	   -179.99999979	   2161.01104808	   -174.63433779	     13.46260933	    -13.19016843
     12.23000000	     35.39417585	     19.61662595	     23.44654048	     81.95022748	    782.53194781	    -44.11520120	     11.12310372	     39.67003961	     34.68906491	     42.09160616	    -25.60213629	   1358.83299680	   1144.65618893	     21.29109192	   -177.76897613	   1439.50731080	    538.11052706	     11.97188110	     13.59443241	    -11.78923383	    -45.00000000	    -45.00000000	     45.00000000	    -45.00000000	   5124.47301377	  -3512.15826914	     16.58401104	   -179.99999979	   2160.97816911	   -174.91614975	     13.19192192	    -13.16478636
     12.24000000	     35.60212364	     19.43159420	     23.04738805	     83.15915287	    781.59022465	    -44.07431114	     11.02898393	     40.19683170	     34.69926072	     42.22832630	    -24.91330434	   1359.17871682	   1144.58040598	     20.97041292	   -177.19383622	   1439.66340256	    538.15639412	     12.05777473	     13.80076137	    -11.95018792	    -45.00000000	    -45.00000000	     45.00000000	    -45.00000000	   5124.44306230	  -3512.25912091	     16.89365194	   -179.99999979	   2161.07652182	   -175.15796093	     13.47102533	    -13.09233924
     12.25000000	     35.47746111	     19.29971398	     22.86688752	     84.31393495	    780.68124283	    -44.03854630	     11.16841865	     39.55610958	     35.32906681	     41.56205332	    -24.87182337	   1358.37455227	   1144.48199879	     21.05712620	   -176.74090320	   1439.73096024	    538.15638109	     11.88300959	     13.56136239	    -12.08132117	    -45.00000000	    -45.00000000	     45.00000000	    -45.00000000	   5124.21236509	  -3512.10489038	     16.62253604	   -179.99999979	   2160.98778269	   -175.48548934	     13.19957296	    -13.10465034
     12.26000000	     35.49229700	     19.43075803	     22.77829497	     85.40474818	    779.81174311	    -44.00770580	     10.94705716	     40.29339277	     34.85652190	     41.52584968	    -24.08319332	   1358.87025743	   1144.68357203	     20.60773028	   -176.08942016	   1439.77616789	    538.07973482	     12.05609883	     13.68970851	    -12.18359375	    -45.00000000	    -45.00000000	     45.00000000	    -45.00000000	   5124.27191668	  -3512.22122649	     16.90681338	   -179.99999979	   2161.22958226	   -175.70994192	     13.48526068	    -12.99024190
     12.27000000	     35.52556035	     19.25482397	     22.62563435	     86.43375340	    778.97773472	    -43.98130839	     10.98406584	     39.43056833	     35.86147119	     41.13470359	    -24.64654048	   1357.89008346	   1144.44668185	     20.91498604	   -175.57970010	   1439.78822470	    537.95582518	     11.75306591	     13.32290729	    -12.27589051	    -45.00000000	    -45.00000000	     45.00000000	    -45.00000000	   5123.77496728	  -3512.15565789	     16.43230347	   -179.99999979	   2161.14646443	   -175.98350069	     13.03133901	    -13.01865013
     12.28000000	     35.79777791	     19.11909017	     22.13608227	     87.39162278	    778.18461711	    -43.95907290	     10.84955520	     40.22178271	     35.61488818	     41.27881934	    -23.69626394	   1358.33798641	   1144.47863350	     20.52524760	   -174.87870230	   1439.98094306	    537.69916271	     11.81370247	     13.49750454	    -12.45271849	    -45.00000000	    -45.00000000	     45.00000000	    -45.00000000	   5123.75894104	  -3512.21261046	     16.81838748	   -179.99999979	   2161.24041023	   -176.23372830	     13.30552925	    -12.96031046
     12.29000000	     35.48081388	     19.24399710	     22.37655782	     88.27732003	    777.42927317	    -43.94040958	     10.91981610	     39.43049220	     35.84745779	     40.64314645	    -23.69666465	   1357.81065223	   1144.52398933	     20.51250521	   -174.34887280	   1440.04436765	    537.43964003	     11.83244951	     13.40626382	    -12.49193646	    -45.00000000	    -45.00000000	     45.00000000	    -45.00000000	   5123.83304322	  -3512.14290482	     16.64413606	   -179.99999979	   2161.25986419	   -176.46941848	     13.13820379	    -12.95691862
     12.30000000	     35.76937019	     19.22978409	     22.12542340	     89.08932989	    776.70877730	    -43.92436152	     10.75334221	     40.33956925	     35.71466035	     40.98975391	    -23.50179231	   1358.23444812	   1144.51660203	     20.27327206	   -173.62429595	   1440.03288298	    537.16465483	     11.80757981	     13.38422485	    -12.55129152	    -45.00000000	    -45.00000000	     45.00000000	    -45.00000000	   5123.73910433	  -3512.39946325	     16.83862980	   -179.99999979	   2161.47141235	   -176.55321546	     13.33057729	    -12.86611900
     12.31000000	     35.51866488	     19.33246972	     22.25204381	     89.82380795	    776.02080108	    -43.90983303	     10.82535294	     39.19821025	     35.87511953	     40.39182984	    -23.45013280	   1357.69791989	   1144.52991397	     20.41462742	   -173.29505788	   1440.26017543	    536.74959644	     11.77418140	     13.29563761	    -12.65328046	    -45.00000000	    -45.00000000	     45.00000000	    -45.00000000	   5123.52060869	  -3512.22532499	     16.42664236	   -179.99999979	   2161.38296174	   -176.69896575	     12.94359623	    -12.95415598
     12.32000000	     35.80250151	     19.28548725	     21.98011672	     90.48532854	    775.35791993	    -43.89582523	     10.61016881	     40.53580387	     35.87934368	     40.79096669	    -23.37920102	   1358.19585036	   1144.50597221	     19.98187965	   -172.52494629	   1440.15614841	    536.39410870	     11.78060697	     13.30577301	    -12.67870357	    -45.00000000	    -45.00000000	     45.00000000	    -45.00000000	   5123.81677403	  -3512.54795989	     17.01976413	   -179.99999979	   2161.56439343	   -176.68782052	     13.39749344	    -12.85076190
     12.33000000	     35.83288031	     19.23281395	     21.82810661	     91.07301936	    774.71705198	    -43.88159849	     10.59512194	     39.68799734	     36.04304921	     40.55057179	    -23.33529128	   1357.91086008	   1144.48230735	     20.15531311	   -172.04263109	   1440.40995212	    535.87488257	     11.67285258	     13.32453499	    -12.78911346	    -45.00000000	    -45.00000000	     45.00000000	    -45.00000000	   5123.45232796	  -3512.42903132	     16.68504061	   -179.99999979	   2161.53019690	   -176.72765732	     13.11775233	    -12.90091545
